<?xml version="1.0" encoding="UTF-8"?>
<svg id="Layer_1" data-name="Layer 1" xmlns="http://www.w3.org/2000/svg" viewBox="0 0 1111.9 226.6" fill="#000000">
  <path class="cls-1" d="m1087.45,36.72v1.85c.18,3.23,1.3,5.86,3.33,7.89,2.25,2.24,5.21,3.36,8.88,3.36h12.24v24.5h-24.48v-12.27c0-3.67-1.12-6.62-3.36-8.87-2.04-2.04-4.68-3.15-7.9-3.34h-1.95c-3.67,0-6.62,1.12-8.87,3.36-2.25,2.25-3.37,5.21-3.37,8.88v12.24h-24.45v-24.47h12.21c3.67,0,6.63-1.13,8.87-3.36s3.37-5.21,3.37-8.88v-1.85c-.18-3.23-1.3-5.86-3.34-7.89-2.24-2.24-5.2-3.36-8.88-3.36h-12.24V0h24.48v12.27c0,3.67,1.12,6.62,3.36,8.87,2.04,2.04,4.68,3.16,7.9,3.34h1.95c3.67,0,6.62-1.12,8.87-3.36,2.25-2.25,3.37-5.21,3.37-8.88V0h24.45v24.47h-12.21c-3.67,0-6.63,1.13-8.87,3.36-2.24,2.25-3.36,5.21-3.36,8.88Z"/>
  <path class="cls-1" d="m223.39,101.15c-36.17,0-58.43,25.51-58.43,62.61s20.87,62.84,58.43,62.84c31.07,0,48.46-17.16,54.72-39.88h-23.19c-2.09,7.88-10.2,21.33-31.07,21.33-23.42,0-35.01-18.32-35.48-38.03h90.9c.23-1.86.23-5.33.23-8.58,0-36.64-20.17-60.29-56.11-60.29Zm-35.01,51.01c1.39-19.48,15.3-32.46,34.32-32.46,20.17,0,33.16,13.91,33.16,32.46h-67.48Z"/>
  <path class="cls-1" d="m394.36,189.49c0,22.96-17.63,36.87-48.7,36.87-34.45,0-52.28-17.04-54.31-39.7h23.11c1.89,12.22,10.56,21.38,30.97,21.38s25.27-8.81,25.27-17.39c0-1.45-.15-2.78-.44-3.99-2.64-11.18-16.82-12.79-30.63-15.72-17.71-4.18-37.66-9.22-42.95-26.12-.87-2.78-1.34-5.89-1.34-9.36,0-20.4,16.47-34.08,44.99-34.08,32.46,0,48,17.39,49.62,37.79h-22.96c-1.62-9.04-6.49-19.48-26.2-19.48-15.3,0-21.79,6.03-21.79,14.85,0,4.93,2.12,8.06,5.73,10.28,5.41,3.34,14.17,4.65,24.18,6.87,20.99,4.92,43.71,10.91,45.35,34.97.07.92.1,1.86.1,2.83Z"/>
  <rect class="cls-1" x="528.8" y="56.57" width="22.73" height="165.79"/>
  <path class="cls-1" d="m646.97,177.02c0,17.85-12.52,29.68-32,29.68-17.16,0-24.12-10.67-24.12-26.67v-75.59h-22.72v81.85c0,27.13,17.62,39.65,39.42,39.65,20.41,0,32.7-9.04,38.96-18.09h.47v14.84h22.72v-118.26h-22.72v72.58Z"/>
  <path class="cls-1" d="m726.01,190v-66.78h22.72v-18.78h-22.72v-38.03h-22.72v38.03h-17.16v18.78h17.16v66.08c0,27.36,11.83,34.78,31.3,34.78,4.87,0,8.58-.23,14.37-1.39v-18.32c-3.94.7-5.8.93-9.74.93-9.74,0-13.22-2.78-13.22-15.3Z"/>
  <g>
    <rect class="cls-1" x="765.23" y="104.34" width="22.72" height="118.26"/>
    <rect class="cls-1" x="763.84" y="58.66" width="25.74" height="24.58"/>
  </g>
  <path class="cls-1" d="m887.88,112.51v-9.65h-62.02v9.65c0,4.29-3.38,7.06-8.61,7.06h-11.2v86.13h11.2c5.23,0,8.61,2.77,8.61,7.06v9.65h62.02v-9.65c0-4.29,3.38-7.06,8.61-7.06h11.2v-86.13h-11.2c-5.23,0-8.61-2.77-8.61-7.06Zm-11.2,90.6h-39.62c-5.23,0-8.61-2.77-8.61-7.06v-66.83c0-4.29,3.38-7.06,8.61-7.06h39.62c5.23,0,8.61,2.77,8.61,7.06v66.83c0,4.29-3.38,7.06-8.61,7.06Z"/>
  <path class="cls-1" d="m986.07,100.63c-20.41,0-32.69,9.28-38.96,18.32h-.46v-14.84h-22.73v118.26h22.73v-72.58c0-17.86,12.52-29.68,32-29.68,17.16,0,24.12,10.66,24.12,26.43v75.83h22.73v-82.08c0-27.13-17.62-39.65-39.42-39.65Z"/>
  <path class="cls-1" d="m491.4,112.51v-9.65h-62.02v9.65c0,4.29-3.38,7.06-8.61,7.06h-11.2v86.13h11.2c5.23,0,8.61,2.77,8.61,7.06v9.65h62.02v-9.65c0-4.29,3.38-7.06,8.61-7.06h11.2v-86.13h-11.2c-5.23,0-8.61-2.77-8.61-7.06Zm-11.2,90.6h-39.62c-5.23,0-8.61-2.77-8.61-7.06v-66.83c0-4.29,3.38-7.06,8.61-7.06h39.62c5.23,0,8.61,2.77,8.61,7.06v66.83c0,4.29-3.38,7.06-8.61,7.06Z"/>
  <path class="cls-1" d="m144.33,199.9c-1.69-1.59-2.52-3.65-2.52-6.28v-10.05h-10.59c-2.81,0-5.09-.81-6.78-2.4s-2.52-3.65-2.52-6.28v-28.79h-10.59c-2.81,0-5.09-.81-6.78-2.4-1.69-1.59-2.52-3.65-2.52-6.28s.82-4.69,2.52-6.28,3.97-2.4,6.78-2.4h10.59v-10.05c0-2.63.82-4.68,2.52-6.28,1.69-1.59,3.97-2.4,6.78-2.4h10.59v-57.59h-10.59c-2.81,0-5.09-.81-6.78-2.4-1.69-1.6-2.52-3.65-2.52-6.28v-10.05H1.33v20.11h15.04c1.39,0,2.55,1.13,2.7,2.64l-.04.16.05.06v142.94l-.02.1c-.15,1.5-1.3,2.64-2.7,2.64H1.33v20.11h80.83v-20.11h-30.47c-2.81,0-5.09-.81-6.78-2.4-.78-.73-1.38-1.6-1.8-2.56v-63.65c.42-.97,1.03-1.83,1.8-2.56,1.7-1.6,3.98-2.4,6.78-2.4h19.89c2.8,0,5.08.81,6.78,2.4,1.69,1.6,2.52,3.65,2.52,6.28v10.05h10.59c2.81,0,5.08.81,6.78,2.4,1.69,1.6,2.52,3.65,2.52,6.28v28.79h10.59c2.81,0,5.08.81,6.78,2.4,1.69,1.6,2.52,3.65,2.52,6.28v28.79h41.06v-20.11h-10.59c-2.81,0-5.09-.81-6.78-2.4ZM43.1,58.73c.42-.97,1.03-1.83,1.8-2.56,1.69-1.6,3.97-2.4,6.78-2.4h59.65c2.81,0,5.08.81,6.78,2.4,1.69,1.6,2.52,3.65,2.52,6.28v37.48c0,2.63-.82,4.68-2.52,6.28s-3.97,2.4-6.78,2.4h-59.65c-2.81,0-5.08-.81-6.78-2.4-.78-.73-1.38-1.6-1.8-2.56v-44.91Z"/>
</svg>